<svg width="250" height="52" viewBox="0 0 250 52" fill="none" xmlns="http://www.w3.org/2000/svg">
<path d="M34 1H22.3498C20.8284 1 19.3898 1.69269 18.441 2.88203L2.48718 22.882C1.03217 24.7061 1.03217 27.2939 2.48718 29.118L18.441 49.118C19.3898 50.3073 20.8284 51 22.3498 51H34" stroke="url(#paint0_linear_1_950)" stroke-width="1.5"/>
<path d="M34 1.75H216V0.25H34V1.75ZM216 50.25H34V51.75H216V50.25Z" fill="white" fill-opacity="0.1"/>
<path d="M81.3757 31V19.32H82.9437V31H81.3757ZM82.6237 31V29.592H87.9677V31H82.6237ZM93.4243 31.288C92.6776 31.288 92.0323 31.16 91.4883 30.904C90.9443 30.648 90.5016 30.312 90.1603 29.896C89.819 29.4693 89.563 28.9947 89.3923 28.472C89.2323 27.9493 89.1523 27.416 89.1523 26.872V26.584C89.1523 26.0293 89.2323 25.4907 89.3923 24.968C89.563 24.4453 89.819 23.976 90.1603 23.56C90.5016 23.1333 90.9336 22.7973 91.4563 22.552C91.9896 22.296 92.6136 22.168 93.3283 22.168C94.2563 22.168 95.019 22.3707 95.6163 22.776C96.2243 23.1707 96.6723 23.6827 96.9603 24.312C97.259 24.9413 97.4083 25.6133 97.4083 26.328V27.016H89.8243V25.864H96.2883L95.9363 26.488C95.9363 25.88 95.8403 25.3573 95.6483 24.92C95.4563 24.472 95.1683 24.1253 94.7843 23.88C94.4003 23.6347 93.915 23.512 93.3283 23.512C92.7203 23.512 92.2136 23.6507 91.8083 23.928C91.4136 24.2053 91.115 24.584 90.9123 25.064C90.7203 25.544 90.6243 26.0987 90.6243 26.728C90.6243 27.336 90.7203 27.8853 90.9123 28.376C91.115 28.856 91.4243 29.24 91.8403 29.528C92.2563 29.8053 92.7843 29.944 93.4243 29.944C94.0963 29.944 94.6403 29.7947 95.0563 29.496C95.483 29.1973 95.739 28.8507 95.8243 28.456H97.2643C97.147 29.0427 96.9123 29.5493 96.5603 29.976C96.2083 30.4027 95.7656 30.728 95.2323 30.952C94.699 31.176 94.0963 31.288 93.4243 31.288ZM104.757 31V28.44H104.501V25.48C104.501 24.8933 104.347 24.4507 104.037 24.152C103.739 23.8533 103.296 23.704 102.709 23.704C102.379 23.704 102.037 23.7093 101.685 23.72C101.333 23.7307 100.997 23.7413 100.677 23.752C100.357 23.7627 100.08 23.7787 99.8452 23.8V22.456C100.08 22.4347 100.325 22.4187 100.581 22.408C100.848 22.3867 101.12 22.376 101.397 22.376C101.675 22.3653 101.941 22.36 102.197 22.36C103.072 22.36 103.787 22.4667 104.341 22.68C104.896 22.8827 105.307 23.2187 105.573 23.688C105.84 24.1573 105.973 24.792 105.973 25.592V31H104.757ZM101.957 31.224C101.317 31.224 100.763 31.1173 100.293 30.904C99.8345 30.68 99.4772 30.36 99.2212 29.944C98.9759 29.528 98.8532 29.0267 98.8532 28.44C98.8532 27.832 98.9865 27.3253 99.2532 26.92C99.5305 26.5147 99.9305 26.2107 100.453 26.008C100.976 25.7947 101.605 25.688 102.341 25.688H104.661V26.84H102.277C101.659 26.84 101.184 26.9893 100.853 27.288C100.523 27.5867 100.357 27.9707 100.357 28.44C100.357 28.9093 100.523 29.288 100.853 29.576C101.184 29.864 101.659 30.008 102.277 30.008C102.64 30.008 102.987 29.944 103.317 29.816C103.648 29.6773 103.92 29.4533 104.133 29.144C104.357 28.824 104.48 28.3867 104.501 27.832L104.917 28.44C104.864 29.048 104.715 29.56 104.469 29.976C104.235 30.3813 103.904 30.6907 103.477 30.904C103.061 31.1173 102.555 31.224 101.957 31.224ZM108.792 31V22.456H110.008V25.976H109.944C109.944 24.728 110.216 23.816 110.76 23.24C111.315 22.6533 112.142 22.36 113.24 22.36H113.528V23.736H112.984C112.131 23.736 111.475 23.9653 111.016 24.424C110.558 24.872 110.328 25.5227 110.328 26.376V31H108.792ZM115.355 31V22.456H116.571V26.12H116.379C116.379 25.2773 116.491 24.568 116.715 23.992C116.949 23.4053 117.301 22.9627 117.771 22.664C118.24 22.3547 118.832 22.2 119.547 22.2H119.611C120.688 22.2 121.483 22.536 121.995 23.208C122.517 23.88 122.779 24.8507 122.779 26.12V31H121.243V25.8C121.243 25.1387 121.056 24.6107 120.683 24.216C120.309 23.8107 119.797 23.608 119.147 23.608C118.475 23.608 117.931 23.816 117.515 24.232C117.099 24.648 116.891 25.2027 116.891 25.896V31H115.355ZM129.23 31V22.456H130.446V26.12H130.254C130.254 25.288 130.36 24.584 130.574 24.008C130.798 23.4213 131.128 22.9733 131.566 22.664C132.003 22.3547 132.558 22.2 133.23 22.2H133.294C133.966 22.2 134.52 22.3547 134.958 22.664C135.406 22.9733 135.736 23.4213 135.95 24.008C136.163 24.584 136.27 25.288 136.27 26.12H135.822C135.822 25.288 135.934 24.584 136.158 24.008C136.382 23.4213 136.712 22.9733 137.15 22.664C137.598 22.3547 138.158 22.2 138.83 22.2H138.894C139.566 22.2 140.126 22.3547 140.574 22.664C141.022 22.9733 141.352 23.4213 141.566 24.008C141.79 24.584 141.902 25.288 141.902 26.12V31H140.366V25.784C140.366 25.0907 140.195 24.5573 139.854 24.184C139.512 23.8 139.038 23.608 138.43 23.608C137.8 23.608 137.294 23.8107 136.91 24.216C136.526 24.6107 136.334 25.1653 136.334 25.88V31H134.798V25.784C134.798 25.0907 134.627 24.5573 134.286 24.184C133.944 23.8 133.47 23.608 132.862 23.608C132.232 23.608 131.726 23.8107 131.342 24.216C130.958 24.6107 130.766 25.1653 130.766 25.88V31H129.23ZM148.65 31.288C147.904 31.288 147.248 31.16 146.682 30.904C146.117 30.648 145.637 30.312 145.242 29.896C144.858 29.4693 144.565 28.9947 144.362 28.472C144.17 27.9493 144.074 27.416 144.074 26.872V26.584C144.074 26.04 144.176 25.5067 144.378 24.984C144.581 24.4507 144.88 23.976 145.274 23.56C145.669 23.1333 146.149 22.7973 146.714 22.552C147.28 22.296 147.925 22.168 148.65 22.168C149.376 22.168 150.021 22.296 150.586 22.552C151.152 22.7973 151.632 23.1333 152.026 23.56C152.421 23.976 152.72 24.4507 152.922 24.984C153.125 25.5067 153.226 26.04 153.226 26.584V26.872C153.226 27.416 153.125 27.9493 152.922 28.472C152.73 28.9947 152.437 29.4693 152.042 29.896C151.658 30.312 151.184 30.648 150.618 30.904C150.053 31.16 149.397 31.288 148.65 31.288ZM148.65 29.912C149.29 29.912 149.834 29.7733 150.282 29.496C150.741 29.208 151.088 28.824 151.322 28.344C151.568 27.864 151.69 27.3253 151.69 26.728C151.69 26.12 151.568 25.576 151.322 25.096C151.077 24.616 150.725 24.2373 150.266 23.96C149.818 23.6827 149.28 23.544 148.65 23.544C148.032 23.544 147.493 23.6827 147.034 23.96C146.576 24.2373 146.224 24.616 145.978 25.096C145.733 25.576 145.61 26.12 145.61 26.728C145.61 27.3253 145.728 27.864 145.962 28.344C146.208 28.824 146.554 29.208 147.002 29.496C147.461 29.7733 148.01 29.912 148.65 29.912ZM155.527 31V22.456H156.743V25.976H156.679C156.679 24.728 156.951 23.816 157.495 23.24C158.049 22.6533 158.876 22.36 159.975 22.36H160.263V23.736H159.719C158.865 23.736 158.209 23.9653 157.751 24.424C157.292 24.872 157.063 25.5227 157.063 26.376V31H155.527ZM165.627 31.288C164.881 31.288 164.235 31.16 163.691 30.904C163.147 30.648 162.705 30.312 162.363 29.896C162.022 29.4693 161.766 28.9947 161.595 28.472C161.435 27.9493 161.355 27.416 161.355 26.872V26.584C161.355 26.0293 161.435 25.4907 161.595 24.968C161.766 24.4453 162.022 23.976 162.363 23.56C162.705 23.1333 163.137 22.7973 163.659 22.552C164.193 22.296 164.817 22.168 165.531 22.168C166.459 22.168 167.222 22.3707 167.819 22.776C168.427 23.1707 168.875 23.6827 169.163 24.312C169.462 24.9413 169.611 25.6133 169.611 26.328V27.016H162.027V25.864H168.491L168.139 26.488C168.139 25.88 168.043 25.3573 167.851 24.92C167.659 24.472 167.371 24.1253 166.987 23.88C166.603 23.6347 166.118 23.512 165.531 23.512C164.923 23.512 164.417 23.6507 164.011 23.928C163.617 24.2053 163.318 24.584 163.115 25.064C162.923 25.544 162.827 26.0987 162.827 26.728C162.827 27.336 162.923 27.8853 163.115 28.376C163.318 28.856 163.627 29.24 164.043 29.528C164.459 29.8053 164.987 29.944 165.627 29.944C166.299 29.944 166.843 29.7947 167.259 29.496C167.686 29.1973 167.942 28.8507 168.027 28.456H169.467C169.35 29.0427 169.115 29.5493 168.763 29.976C168.411 30.4027 167.969 30.728 167.435 30.952C166.902 31.176 166.299 31.288 165.627 31.288Z" fill="#F1F4FE"/>
<path d="M216 1H227.65C229.172 1 230.61 1.69269 231.559 2.88203L247.513 22.882C248.968 24.7061 248.968 27.2939 247.513 29.118L231.559 49.118C230.61 50.3073 229.172 51 227.65 51H216" stroke="url(#paint1_linear_1_950)" stroke-width="1.5"/>
<defs>
<linearGradient id="paint0_linear_1_950" x1="17" y1="1" x2="17" y2="51" gradientUnits="userSpaceOnUse">
<stop stop-color="#5EDFFF"/>
<stop offset="1" stop-color="#1D58F5"/>
</linearGradient>
<linearGradient id="paint1_linear_1_950" x1="233" y1="1" x2="233" y2="51" gradientUnits="userSpaceOnUse">
<stop stop-color="#5EDFFF"/>
<stop offset="1" stop-color="#1D58F5"/>
</linearGradient>
</defs>
</svg>
