<svg width="216" height="42" viewBox="0 0 216 42" fill="none" xmlns="http://www.w3.org/2000/svg">
<path d="M27 1H17.7714C16.5492 1 15.3941 1.55873 14.6354 2.51688L1.9662 18.5169C0.814122 19.9718 0.81412 22.0282 1.9662 23.4831L14.6354 39.4831C15.3941 40.4413 16.5492 41 17.7714 41H27" stroke="url(#paint0_linear_23_40)" stroke-width="1.5"/>
<path d="M27 1.75H189V0.25H27V1.75ZM189 40.25H27V41.75H189V40.25Z" fill="white" fill-opacity="0.1"/>
<path d="M49.6422 26V15.78H51.0142V26H49.6422ZM50.7342 26V24.768H55.4102V26H50.7342ZM60.1848 26.252C59.5314 26.252 58.9668 26.14 58.4908 25.916C58.0148 25.692 57.6274 25.398 57.3288 25.034C57.0301 24.6607 56.8061 24.2453 56.6568 23.788C56.5168 23.3307 56.4468 22.864 56.4468 22.388V22.136C56.4468 21.6507 56.5168 21.1793 56.6568 20.722C56.8061 20.2647 57.0301 19.854 57.3288 19.49C57.6274 19.1167 58.0054 18.8227 58.4628 18.608C58.9294 18.384 59.4754 18.272 60.1008 18.272C60.9128 18.272 61.5801 18.4493 62.1028 18.804C62.6348 19.1493 63.0268 19.5973 63.2788 20.148C63.5401 20.6987 63.6708 21.2867 63.6708 21.912V22.514H57.0348V21.506H62.6908L62.3828 22.052C62.3828 21.52 62.2988 21.0627 62.1308 20.68C61.9628 20.288 61.7108 19.9847 61.3748 19.77C61.0388 19.5553 60.6141 19.448 60.1008 19.448C59.5688 19.448 59.1254 19.5693 58.7708 19.812C58.4254 20.0547 58.1641 20.386 57.9868 20.806C57.8188 21.226 57.7348 21.7113 57.7348 22.262C57.7348 22.794 57.8188 23.2747 57.9868 23.704C58.1641 24.124 58.4348 24.46 58.7988 24.712C59.1628 24.9547 59.6248 25.076 60.1848 25.076C60.7728 25.076 61.2488 24.9453 61.6128 24.684C61.9861 24.4227 62.2101 24.1193 62.2848 23.774H63.5448C63.4421 24.2873 63.2368 24.7307 62.9288 25.104C62.6208 25.4773 62.2334 25.762 61.7668 25.958C61.3001 26.154 60.7728 26.252 60.1848 26.252ZM68.491 26.084C67.931 26.084 67.4457 26.0047 67.035 25.846C66.6337 25.6873 66.321 25.4167 66.097 25.034C65.8823 24.642 65.775 24.1147 65.775 23.452V16.256H67.063V23.62C67.063 24.0213 67.1703 24.334 67.385 24.558C67.609 24.7727 67.9217 24.88 68.323 24.88H69.639V26.084H68.491ZM64.487 19.532V18.524H69.639V19.532H64.487ZM70.924 20.036V19.308H71.05C71.3486 19.308 71.5866 19.2567 71.764 19.154C71.9413 19.0513 72.0673 18.8927 72.142 18.678C72.226 18.454 72.268 18.174 72.268 17.838V16.788L72.604 17.418C72.5386 17.4553 72.45 17.4833 72.338 17.502C72.2353 17.5207 72.1326 17.53 72.03 17.53C71.7686 17.53 71.5493 17.4507 71.372 17.292C71.204 17.124 71.12 16.8953 71.12 16.606C71.12 16.3353 71.1993 16.1113 71.358 15.934C71.526 15.7567 71.75 15.668 72.03 15.668C72.2073 15.668 72.3753 15.71 72.534 15.794C72.6926 15.878 72.8233 16.0273 72.926 16.242C73.0286 16.4567 73.08 16.7647 73.08 17.166V17.46C73.08 18.1413 72.996 18.6687 72.828 19.042C72.66 19.4153 72.422 19.6767 72.114 19.826C71.806 19.966 71.442 20.036 71.022 20.036H70.924ZM76.8747 26.224C75.8947 26.224 75.1341 26.014 74.5927 25.594C74.0607 25.174 73.7854 24.6 73.7667 23.872H75.0267C75.0454 24.1613 75.1901 24.4367 75.4607 24.698C75.7407 24.95 76.2121 25.076 76.8747 25.076C77.4721 25.076 77.9294 24.9593 78.2467 24.726C78.5641 24.4833 78.7227 24.1893 78.7227 23.844C78.7227 23.536 78.6061 23.298 78.3727 23.13C78.1394 22.9527 77.7614 22.836 77.2387 22.78L76.4267 22.696C75.7174 22.6213 75.1387 22.4113 74.6907 22.066C74.2427 21.7113 74.0187 21.2167 74.0187 20.582C74.0187 20.106 74.1401 19.7 74.3827 19.364C74.6254 19.0187 74.9614 18.7573 75.3907 18.58C75.8201 18.3933 76.3147 18.3 76.8747 18.3C77.7147 18.3 78.3961 18.4867 78.9187 18.86C79.4414 19.2333 79.7121 19.7887 79.7307 20.526H78.4707C78.4614 20.2273 78.3214 19.9753 78.0507 19.77C77.7894 19.5553 77.3974 19.448 76.8747 19.448C76.3521 19.448 75.9554 19.5553 75.6847 19.77C75.4141 19.9847 75.2787 20.2553 75.2787 20.582C75.2787 20.862 75.3721 21.086 75.5587 21.254C75.7547 21.422 76.0721 21.5293 76.5107 21.576L77.3227 21.66C78.1254 21.744 78.7694 21.968 79.2547 22.332C79.7401 22.6867 79.9827 23.1907 79.9827 23.844C79.9827 24.3107 79.8474 24.726 79.5767 25.09C79.3154 25.4447 78.9514 25.7247 78.4847 25.93C78.0181 26.126 77.4814 26.224 76.8747 26.224ZM89.7501 26.252C88.8168 26.252 88.0188 26.0887 87.3561 25.762C86.7028 25.4353 86.1755 25.0107 85.7741 24.488C85.3728 23.9653 85.0788 23.4007 84.8921 22.794C84.7055 22.178 84.6121 21.5853 84.6121 21.016V20.708C84.6121 20.092 84.7055 19.476 84.8921 18.86C85.0881 18.244 85.3868 17.684 85.7881 17.18C86.1895 16.676 86.7121 16.27 87.3561 15.962C88.0001 15.654 88.7701 15.5 89.6661 15.5C90.5808 15.5 91.3648 15.6587 92.0181 15.976C92.6715 16.2933 93.1895 16.7367 93.5721 17.306C93.9548 17.8753 94.1881 18.5473 94.2721 19.322H92.8721C92.7975 18.7433 92.6108 18.2673 92.3121 17.894C92.0135 17.5113 91.6355 17.2267 91.1781 17.04C90.7301 16.8533 90.2261 16.76 89.6661 16.76C89.0595 16.76 88.5275 16.8673 88.0701 17.082C87.6128 17.2873 87.2301 17.5813 86.9221 17.964C86.6235 18.3373 86.3948 18.7713 86.2361 19.266C86.0868 19.7607 86.0121 20.2973 86.0121 20.876C86.0121 21.4267 86.0868 21.9493 86.2361 22.444C86.3948 22.9387 86.6281 23.3773 86.9361 23.76C87.2535 24.1427 87.6455 24.446 88.1121 24.67C88.5788 24.8847 89.1248 24.992 89.7501 24.992C90.6275 24.992 91.3648 24.7727 91.9621 24.334C92.5595 23.8953 92.9235 23.2607 93.0541 22.43H94.4541C94.3608 23.13 94.1228 23.7693 93.7401 24.348C93.3668 24.9267 92.8441 25.3887 92.1721 25.734C91.5095 26.0793 90.7021 26.252 89.7501 26.252ZM99.689 26.252C99.0357 26.252 98.4617 26.14 97.967 25.916C97.4724 25.692 97.0524 25.398 96.707 25.034C96.371 24.6607 96.1144 24.2453 95.937 23.788C95.769 23.3307 95.685 22.864 95.685 22.388V22.136C95.685 21.66 95.7737 21.1933 95.951 20.736C96.1284 20.2693 96.3897 19.854 96.735 19.49C97.0804 19.1167 97.5004 18.8227 97.995 18.608C98.4897 18.384 99.0544 18.272 99.689 18.272C100.324 18.272 100.888 18.384 101.383 18.608C101.878 18.8227 102.298 19.1167 102.643 19.49C102.988 19.854 103.25 20.2693 103.427 20.736C103.604 21.1933 103.693 21.66 103.693 22.136V22.388C103.693 22.864 103.604 23.3307 103.427 23.788C103.259 24.2453 103.002 24.6607 102.657 25.034C102.321 25.398 101.906 25.692 101.411 25.916C100.916 26.14 100.342 26.252 99.689 26.252ZM99.689 25.048C100.249 25.048 100.725 24.9267 101.117 24.684C101.518 24.432 101.822 24.096 102.027 23.676C102.242 23.256 102.349 22.7847 102.349 22.262C102.349 21.73 102.242 21.254 102.027 20.834C101.812 20.414 101.504 20.0827 101.103 19.84C100.711 19.5973 100.24 19.476 99.689 19.476C99.1477 19.476 98.6764 19.5973 98.275 19.84C97.8737 20.0827 97.5657 20.414 97.351 20.834C97.1364 21.254 97.029 21.73 97.029 22.262C97.029 22.7847 97.1317 23.256 97.337 23.676C97.5517 24.096 97.855 24.432 98.247 24.684C98.6484 24.9267 99.129 25.048 99.689 25.048ZM105.79 26V15.78H107.134V26H105.79ZM104.754 16.844V15.78H107.134V16.844H104.754ZM109.796 26V15.78H111.14V26H109.796ZM108.76 16.844V15.78H111.14V16.844H108.76ZM118.24 26V23.76H118.016V21.17C118.016 20.6567 117.88 20.2693 117.61 20.008C117.348 19.7467 116.961 19.616 116.448 19.616C116.158 19.616 115.86 19.6207 115.552 19.63C115.244 19.6393 114.95 19.6487 114.67 19.658C114.39 19.6673 114.147 19.6813 113.942 19.7V18.524C114.147 18.5053 114.362 18.4913 114.586 18.482C114.819 18.4633 115.057 18.454 115.3 18.454C115.542 18.4447 115.776 18.44 116 18.44C116.765 18.44 117.39 18.5333 117.876 18.72C118.361 18.8973 118.72 19.1913 118.954 19.602C119.187 20.0127 119.304 20.568 119.304 21.268V26H118.24ZM115.79 26.196C115.23 26.196 114.744 26.1027 114.334 25.916C113.932 25.72 113.62 25.44 113.396 25.076C113.181 24.712 113.074 24.2733 113.074 23.76C113.074 23.228 113.19 22.7847 113.424 22.43C113.666 22.0753 114.016 21.8093 114.474 21.632C114.931 21.4453 115.482 21.352 116.126 21.352H118.156V22.36H116.07C115.528 22.36 115.113 22.4907 114.824 22.752C114.534 23.0133 114.39 23.3493 114.39 23.76C114.39 24.1707 114.534 24.502 114.824 24.754C115.113 25.006 115.528 25.132 116.07 25.132C116.387 25.132 116.69 25.076 116.98 24.964C117.269 24.8427 117.507 24.6467 117.694 24.376C117.89 24.096 117.997 23.7133 118.016 23.228L118.38 23.76C118.333 24.292 118.202 24.74 117.988 25.104C117.782 25.4587 117.493 25.7293 117.12 25.916C116.756 26.1027 116.312 26.196 115.79 26.196ZM125.718 26.252C125.102 26.252 124.552 26.1167 124.066 25.846C123.59 25.5753 123.212 25.1833 122.932 24.67C122.652 24.1473 122.498 23.522 122.47 22.794H122.834V26H121.77V15.78H123.114V20.75L122.638 21.772C122.676 20.96 122.839 20.2973 123.128 19.784C123.418 19.2707 123.796 18.8927 124.262 18.65C124.738 18.398 125.261 18.272 125.83 18.272C126.362 18.272 126.848 18.3747 127.286 18.58C127.725 18.776 128.103 19.0513 128.42 19.406C128.738 19.7513 128.98 20.1573 129.148 20.624C129.316 21.0813 129.4 21.576 129.4 22.108V22.36C129.4 22.892 129.312 23.3913 129.134 23.858C128.966 24.3247 128.719 24.74 128.392 25.104C128.066 25.4587 127.674 25.7387 127.216 25.944C126.768 26.1493 126.269 26.252 125.718 26.252ZM125.564 25.076C126.068 25.076 126.507 24.9547 126.88 24.712C127.254 24.4693 127.543 24.138 127.748 23.718C127.954 23.2887 128.056 22.794 128.056 22.234C128.056 21.674 127.949 21.184 127.734 20.764C127.529 20.344 127.24 20.022 126.866 19.798C126.493 19.5647 126.059 19.448 125.564 19.448C125.116 19.448 124.701 19.5507 124.318 19.756C123.936 19.952 123.628 20.2413 123.394 20.624C123.17 20.9973 123.058 21.45 123.058 21.982V22.626C123.058 23.1393 123.175 23.578 123.408 23.942C123.642 24.306 123.95 24.586 124.332 24.782C124.715 24.978 125.126 25.076 125.564 25.076ZM134.867 26.252C134.213 26.252 133.639 26.14 133.145 25.916C132.65 25.692 132.23 25.398 131.885 25.034C131.549 24.6607 131.292 24.2453 131.115 23.788C130.947 23.3307 130.863 22.864 130.863 22.388V22.136C130.863 21.66 130.951 21.1933 131.129 20.736C131.306 20.2693 131.567 19.854 131.913 19.49C132.258 19.1167 132.678 18.8227 133.173 18.608C133.667 18.384 134.232 18.272 134.867 18.272C135.501 18.272 136.066 18.384 136.561 18.608C137.055 18.8227 137.475 19.1167 137.821 19.49C138.166 19.854 138.427 20.2693 138.605 20.736C138.782 21.1933 138.871 21.66 138.871 22.136V22.388C138.871 22.864 138.782 23.3307 138.605 23.788C138.437 24.2453 138.18 24.6607 137.835 25.034C137.499 25.398 137.083 25.692 136.589 25.916C136.094 26.14 135.52 26.252 134.867 26.252ZM134.867 25.048C135.427 25.048 135.903 24.9267 136.295 24.684C136.696 24.432 136.999 24.096 137.205 23.676C137.419 23.256 137.527 22.7847 137.527 22.262C137.527 21.73 137.419 21.254 137.205 20.834C136.99 20.414 136.682 20.0827 136.281 19.84C135.889 19.5973 135.417 19.476 134.867 19.476C134.325 19.476 133.854 19.5973 133.453 19.84C133.051 20.0827 132.743 20.414 132.529 20.834C132.314 21.254 132.207 21.73 132.207 22.262C132.207 22.7847 132.309 23.256 132.515 23.676C132.729 24.096 133.033 24.432 133.425 24.684C133.826 24.9267 134.307 25.048 134.867 25.048ZM140.884 26V18.524H141.948V21.604H141.892C141.892 20.512 142.13 19.714 142.606 19.21C143.091 18.6967 143.814 18.44 144.776 18.44H145.028V19.644H144.552C143.805 19.644 143.231 19.8447 142.83 20.246C142.428 20.638 142.228 21.2073 142.228 21.954V26H140.884ZM151.121 26V23.76H150.897V21.17C150.897 20.6567 150.761 20.2693 150.491 20.008C150.229 19.7467 149.842 19.616 149.329 19.616C149.039 19.616 148.741 19.6207 148.433 19.63C148.125 19.6393 147.831 19.6487 147.551 19.658C147.271 19.6673 147.028 19.6813 146.823 19.7V18.524C147.028 18.5053 147.243 18.4913 147.467 18.482C147.7 18.4633 147.938 18.454 148.181 18.454C148.423 18.4447 148.657 18.44 148.881 18.44C149.646 18.44 150.271 18.5333 150.757 18.72C151.242 18.8973 151.601 19.1913 151.835 19.602C152.068 20.0127 152.185 20.568 152.185 21.268V26H151.121ZM148.671 26.196C148.111 26.196 147.625 26.1027 147.215 25.916C146.813 25.72 146.501 25.44 146.277 25.076C146.062 24.712 145.955 24.2733 145.955 23.76C145.955 23.228 146.071 22.7847 146.305 22.43C146.547 22.0753 146.897 21.8093 147.355 21.632C147.812 21.4453 148.363 21.352 149.007 21.352H151.037V22.36H148.951C148.409 22.36 147.994 22.4907 147.705 22.752C147.415 23.0133 147.271 23.3493 147.271 23.76C147.271 24.1707 147.415 24.502 147.705 24.754C147.994 25.006 148.409 25.132 148.951 25.132C149.268 25.132 149.571 25.076 149.861 24.964C150.15 24.8427 150.388 24.6467 150.575 24.376C150.771 24.096 150.878 23.7133 150.897 23.228L151.261 23.76C151.214 24.292 151.083 24.74 150.869 25.104C150.663 25.4587 150.374 25.7293 150.001 25.916C149.637 26.1027 149.193 26.196 148.671 26.196ZM157.563 26.084C157.003 26.084 156.518 26.0047 156.107 25.846C155.706 25.6873 155.393 25.4167 155.169 25.034C154.955 24.642 154.847 24.1147 154.847 23.452V16.256H156.135V23.62C156.135 24.0213 156.243 24.334 156.457 24.558C156.681 24.7727 156.994 24.88 157.395 24.88H158.711V26.084H157.563ZM153.559 19.532V18.524H158.711V19.532H153.559ZM163.736 26.252C163.082 26.252 162.518 26.14 162.042 25.916C161.566 25.692 161.178 25.398 160.88 25.034C160.581 24.6607 160.357 24.2453 160.208 23.788C160.068 23.3307 159.998 22.864 159.998 22.388V22.136C159.998 21.6507 160.068 21.1793 160.208 20.722C160.357 20.2647 160.581 19.854 160.88 19.49C161.178 19.1167 161.556 18.8227 162.014 18.608C162.48 18.384 163.026 18.272 163.652 18.272C164.464 18.272 165.131 18.4493 165.654 18.804C166.186 19.1493 166.578 19.5973 166.83 20.148C167.091 20.6987 167.222 21.2867 167.222 21.912V22.514H160.586V21.506H166.242L165.934 22.052C165.934 21.52 165.85 21.0627 165.682 20.68C165.514 20.288 165.262 19.9847 164.926 19.77C164.59 19.5553 164.165 19.448 163.652 19.448C163.12 19.448 162.676 19.5693 162.322 19.812C161.976 20.0547 161.715 20.386 161.538 20.806C161.37 21.226 161.286 21.7113 161.286 22.262C161.286 22.794 161.37 23.2747 161.538 23.704C161.715 24.124 161.986 24.46 162.35 24.712C162.714 24.9547 163.176 25.076 163.736 25.076C164.324 25.076 164.8 24.9453 165.164 24.684C165.537 24.4227 165.761 24.1193 165.836 23.774H167.096C166.993 24.2873 166.788 24.7307 166.48 25.104C166.172 25.4773 165.784 25.762 165.318 25.958C164.851 26.154 164.324 26.252 163.736 26.252Z" fill="white"/>
<path d="M189 1.00001H198.229C199.451 1.00001 200.606 1.55874 201.365 2.51689L214.034 18.5169C215.186 19.9719 215.186 22.0282 214.034 23.4831L201.365 39.4831C200.606 40.4413 199.451 41 198.229 41H189" stroke="url(#paint1_linear_23_40)" stroke-width="1.5"/>
<defs>
<linearGradient id="paint0_linear_23_40" x1="13.5" y1="1" x2="13.5" y2="41" gradientUnits="userSpaceOnUse">
<stop stop-color="#5EDFFF"/>
<stop offset="1" stop-color="#1D58F5"/>
</linearGradient>
<linearGradient id="paint1_linear_23_40" x1="202.5" y1="1.00001" x2="202.5" y2="41" gradientUnits="userSpaceOnUse">
<stop stop-color="#5EDFFF"/>
<stop offset="1" stop-color="#1D58F5"/>
</linearGradient>
</defs>
</svg>
